<svg xmlns="http://www.w3.org/2000/svg" width="720" height="460" viewBox="0 0 720 460" role="img" aria-label="Study help discussion illustration">
  <defs>
    <linearGradient id="help-bg" x1="0" x2="1" y1="0" y2="1">
      <stop offset="0" stop-color="#f0fdf4"/>
      <stop offset="0.55" stop-color="#f8fafc"/>
      <stop offset="1" stop-color="#fff7ed"/>
    </linearGradient>
    <filter id="help-shadow" x="-15%" y="-20%" width="130%" height="140%">
      <feDropShadow dx="0" dy="18" stdDeviation="16" flood-color="#0f172a" flood-opacity="0.14"/>
    </filter>
  </defs>
  <rect width="720" height="460" rx="28" fill="url(#help-bg)"/>
  <g filter="url(#help-shadow)">
    <rect x="92" y="76" width="536" height="310" rx="26" fill="#ffffff" stroke="#d7e3e8"/>
    <circle cx="174" cy="160" r="42" fill="#15803d"/>
    <path d="M158 158h32M174 142v32" stroke="#fff" stroke-width="9" stroke-linecap="round"/>
    <rect x="242" y="130" width="286" height="18" rx="9" fill="#cbd5e1"/>
    <rect x="242" y="166" width="218" height="14" rx="7" fill="#e2e8f0"/>
    <rect x="136" y="238" width="198" height="88" rx="18" fill="#eff6ff" stroke="#bfdbfe"/>
    <rect x="170" y="266" width="112" height="12" rx="6" fill="#2563eb"/>
    <rect x="170" y="292" width="78" height="12" rx="6" fill="#93c5fd"/>
    <rect x="386" y="238" width="198" height="88" rx="18" fill="#fef3c7" stroke="#fde68a"/>
    <rect x="420" y="266" width="112" height="12" rx="6" fill="#b45309"/>
    <rect x="420" y="292" width="70" height="12" rx="6" fill="#fbbf24"/>
  </g>
  <path d="M118 401c92-38 186-31 270-6 92 28 164 34 254-15" fill="none" stroke="#86efac" stroke-width="20" stroke-linecap="round" opacity="0.72"/>
</svg>
