<svg xmlns="http://www.w3.org/2000/svg" width="720" height="460" viewBox="0 0 720 460" role="img" aria-label="AI learning workspace illustration">
  <defs>
    <linearGradient id="ai-bg" x1="0" x2="1" y1="0" y2="1">
      <stop offset="0" stop-color="#f7f3ff"/>
      <stop offset="0.52" stop-color="#f5fbff"/>
      <stop offset="1" stop-color="#eefdf6"/>
    </linearGradient>
    <linearGradient id="ai-core" x1="0" x2="1">
      <stop offset="0" stop-color="#7c3aed"/>
      <stop offset="1" stop-color="#0891b2"/>
    </linearGradient>
    <filter id="soft-shadow" x="-15%" y="-20%" width="130%" height="140%">
      <feDropShadow dx="0" dy="16" stdDeviation="16" flood-color="#1f2937" flood-opacity="0.16"/>
    </filter>
  </defs>
  <rect width="720" height="460" rx="28" fill="url(#ai-bg)"/>
  <path d="M70 342c92-48 160-34 240-4 93 35 167 49 340-18v94H70z" fill="#dff7ef"/>
  <g filter="url(#soft-shadow)">
    <rect x="86" y="72" width="548" height="304" rx="24" fill="#ffffff" stroke="#d7e3e8"/>
    <rect x="126" y="112" width="178" height="20" rx="10" fill="#7c3aed"/>
    <rect x="126" y="154" width="324" height="14" rx="7" fill="#d7e3e8"/>
    <rect x="126" y="184" width="236" height="14" rx="7" fill="#e7eef2"/>
    <g transform="translate(432 124)">
      <circle cx="58" cy="58" r="58" fill="url(#ai-core)"/>
      <circle cx="58" cy="58" r="32" fill="#ffffff" opacity="0.94"/>
      <path d="M40 58h36M58 40v36" stroke="#7c3aed" stroke-width="8" stroke-linecap="round"/>
      <circle cx="18" cy="58" r="6" fill="#0891b2"/>
      <circle cx="98" cy="58" r="6" fill="#0891b2"/>
      <circle cx="58" cy="18" r="6" fill="#7c3aed"/>
      <circle cx="58" cy="98" r="6" fill="#7c3aed"/>
    </g>
    <g transform="translate(126 238)">
      <rect width="128" height="76" rx="16" fill="#f4f0ff" stroke="#ddd6fe"/>
      <rect x="22" y="22" width="84" height="10" rx="5" fill="#7c3aed"/>
      <rect x="22" y="46" width="58" height="10" rx="5" fill="#a78bfa"/>
      <rect x="156" width="128" height="76" rx="16" fill="#ecfeff" stroke="#bae6fd"/>
      <rect x="178" y="22" width="84" height="10" rx="5" fill="#0891b2"/>
      <rect x="178" y="46" width="48" height="10" rx="5" fill="#67e8f9"/>
    </g>
  </g>
</svg>
