<svg xmlns="http://www.w3.org/2000/svg" width="720" height="460" viewBox="0 0 720 460" role="img" aria-label="StudyForge knowledge workspace illustration">
  <defs>
    <linearGradient id="learn-bg" x1="0" x2="1" y1="0" y2="1">
      <stop offset="0" stop-color="#eefdfa"/>
      <stop offset="0.56" stop-color="#f8fafc"/>
      <stop offset="1" stop-color="#eff6ff"/>
    </linearGradient>
    <filter id="learn-shadow" x="-15%" y="-20%" width="130%" height="140%">
      <feDropShadow dx="0" dy="18" stdDeviation="16" flood-color="#0f172a" flood-opacity="0.14"/>
    </filter>
  </defs>
  <rect width="720" height="460" rx="28" fill="url(#learn-bg)"/>
  <path d="M72 350c80-36 164-32 250-2 98 34 190 44 326-20v86H72z" fill="#e0f2fe"/>
  <g filter="url(#learn-shadow)">
    <rect x="82" y="70" width="556" height="316" rx="26" fill="#ffffff" stroke="#d7e3e8"/>
    <rect x="126" y="112" width="190" height="20" rx="10" fill="#0f766e"/>
    <rect x="126" y="154" width="404" height="14" rx="7" fill="#d7e3e8"/>
    <rect x="126" y="184" width="320" height="14" rx="7" fill="#e7eef2"/>
    <rect x="126" y="236" width="132" height="90" rx="18" fill="#e0f2fe" stroke="#bae6fd"/>
    <rect x="294" y="236" width="132" height="90" rx="18" fill="#ecfdf3" stroke="#bbf7d0"/>
    <rect x="462" y="236" width="132" height="90" rx="18" fill="#fff7ed" stroke="#fed7aa"/>
    <circle cx="192" cy="281" r="24" fill="#2563eb"/>
    <path d="M182 281h20M192 271v20" stroke="#fff" stroke-width="7" stroke-linecap="round"/>
    <path d="M326 272h68M326 294h46" stroke="#15803d" stroke-width="10" stroke-linecap="round"/>
    <path d="M498 286c16-38 48-30 44 3-3 18-24 25-44 8" fill="none" stroke="#b45309" stroke-width="10" stroke-linecap="round"/>
  </g>
</svg>
