<svg xmlns="http://www.w3.org/2000/svg" width="720" height="460" viewBox="0 0 720 460" role="img" aria-label="Technical system map illustration">
  <defs>
    <linearGradient id="sys-bg" x1="0" x2="1" y1="0" y2="1">
      <stop offset="0" stop-color="#eff6ff"/>
      <stop offset="0.58" stop-color="#f8fafc"/>
      <stop offset="1" stop-color="#f0fdfa"/>
    </linearGradient>
    <filter id="sys-shadow" x="-15%" y="-20%" width="130%" height="140%">
      <feDropShadow dx="0" dy="18" stdDeviation="16" flood-color="#0f172a" flood-opacity="0.18"/>
    </filter>
  </defs>
  <rect width="720" height="460" rx="28" fill="url(#sys-bg)"/>
  <g filter="url(#sys-shadow)">
    <rect x="82" y="70" width="556" height="316" rx="26" fill="#111827"/>
    <rect x="126" y="112" width="180" height="18" rx="9" fill="#22c55e"/>
    <rect x="126" y="154" width="468" height="14" rx="7" fill="#334155"/>
    <rect x="126" y="202" width="196" height="96" rx="18" fill="#1f2937" stroke="#334155"/>
    <rect x="398" y="202" width="196" height="96" rx="18" fill="#1f2937" stroke="#334155"/>
    <path d="M346 250h28" stroke="#38bdf8" stroke-width="10" stroke-linecap="round"/>
    <path d="M166 250l46-32 46 32-46 32-46-32z" fill="#38bdf8"/>
    <path d="M278 238h22M278 262h28" stroke="#cbd5e1" stroke-width="10" stroke-linecap="round"/>
    <path d="M438 236h118M438 262h82" stroke="#cbd5e1" stroke-width="10" stroke-linecap="round"/>
    <circle cx="554" cy="262" r="13" fill="#22c55e"/>
    <circle cx="526" cy="236" r="9" fill="#38bdf8"/>
  </g>
</svg>
